<?xml version="1.0" encoding="UTF-8"?>
<svg xmlns="http://www.w3.org/2000/svg" xmlns:xlink="http://www.w3.org/1999/xlink" width="32px" height="32px" viewBox="0 0 32 32" version="1.1">
<g id="surface1">
<path style="fill-rule:nonzero;fill:rgb(5.882353%,51.372549%,100%);fill-opacity:1;stroke-width:26.73;stroke-linecap:round;stroke-linejoin:round;stroke:rgb(100%,100%,100%);stroke-opacity:1;stroke-miterlimit:4;" d="M 148.5 142.48604 C 146.439272 142.48604 144.757046 144.252378 144.757046 146.439272 C 144.757046 148.626167 146.439272 150.392505 148.5 150.392505 C 150.560728 150.392505 152.242954 148.626167 152.242954 146.439272 C 152.242954 144.252378 150.560728 142.48604 148.5 142.48604 Z M 148.5 142.48604 " transform="matrix(0.0928829,0,0,0.0928829,2.206897,2.206897)"/>
<path style="fill-rule:nonzero;fill:rgb(5.882353%,51.372549%,100%);fill-opacity:1;stroke-width:26.73;stroke-linecap:round;stroke-linejoin:round;stroke:rgb(100%,100%,100%);stroke-opacity:1;stroke-miterlimit:4;" d="M 148.5 95.804253 C 120.617095 95.804253 97.949092 118.514312 97.949092 146.439272 C 97.949092 189.125771 145.177603 231.223491 147.154219 233.031885 C 147.658887 233.410386 148.163555 233.494497 148.5 233.494497 C 148.836445 233.494497 149.341113 233.410386 149.845781 233.031885 C 151.822397 231.223491 199.050908 189.125771 199.050908 146.439272 C 199.050908 118.514312 176.382905 95.804253 148.5 95.804253 Z M 148.5 164.439097 C 138.70103 164.439097 130.710454 156.364409 130.710454 146.439272 C 130.710454 136.514136 138.70103 128.439448 148.5 128.439448 C 158.29897 128.439448 166.289546 136.514136 166.289546 146.439272 C 166.289546 156.364409 158.29897 164.439097 148.5 164.439097 Z M 148.5 164.439097 " transform="matrix(0.0928829,0,0,0.0928829,2.206897,2.206897)"/>
<path style="fill-rule:nonzero;fill:rgb(5.882353%,51.372549%,100%);fill-opacity:1;stroke-width:26.73;stroke-linecap:round;stroke-linejoin:round;stroke:rgb(100%,100%,100%);stroke-opacity:1;stroke-miterlimit:4;" d="M 293.087373 122.719878 L 154.640127 15.81438 C 151.02334 12.99665 145.97666 12.99665 142.359873 15.81438 L 3.912627 122.719878 C 0.506118 125.369385 -0.839663 129.869341 0.548174 133.906685 C 1.936011 137.986084 5.721021 140.719702 10.052754 140.719702 L 49.458911 140.719702 L 49.458911 273.2371 C 49.458911 278.788447 53.958867 283.288403 59.510215 283.288403 L 237.531841 283.288403 C 243.041133 283.288403 247.541089 278.788447 247.541089 273.2371 L 247.541089 140.719702 L 286.947246 140.719702 C 291.278979 140.719702 295.063989 137.986084 296.451826 133.906685 C 297.839663 129.869341 296.493882 125.369385 293.087373 122.719878 Z M 159.098027 243.545801 C 156.196187 246.153252 152.411177 247.583145 148.5 247.583145 C 144.588823 247.583145 140.803813 246.153252 137.901973 243.545801 C 135.673022 241.61124 83.9025 195.392065 83.9025 146.439272 C 83.9025 110.776069 112.878853 81.757661 148.5 81.757661 C 184.121147 81.757661 213.0975 110.776069 213.0975 146.439272 C 213.0975 195.392065 161.326978 241.61124 159.098027 243.545801 Z M 159.098027 243.545801 " transform="matrix(0.0928829,0,0,0.0928829,2.206897,2.206897)"/>
<path style="fill-rule:nonzero;fill:rgb(5.882353%,51.372549%,100%);fill-opacity:1;stroke-width:1;stroke-linecap:butt;stroke-linejoin:miter;stroke:rgb(5.882353%,51.372549%,100%);stroke-opacity:1;stroke-miterlimit:4;" d="M 148.5 142.48604 C 146.439272 142.48604 144.757046 144.252378 144.757046 146.439272 C 144.757046 148.626167 146.439272 150.392505 148.5 150.392505 C 150.560728 150.392505 152.242954 148.626167 152.242954 146.439272 C 152.242954 144.252378 150.560728 142.48604 148.5 142.48604 Z M 148.5 142.48604 " transform="matrix(0.0928829,0,0,0.0928829,2.206897,2.206897)"/>
<path style="fill-rule:nonzero;fill:rgb(5.882353%,51.372549%,100%);fill-opacity:1;stroke-width:1;stroke-linecap:butt;stroke-linejoin:miter;stroke:rgb(5.882353%,51.372549%,100%);stroke-opacity:1;stroke-miterlimit:4;" d="M 148.5 95.804253 C 120.617095 95.804253 97.949092 118.514312 97.949092 146.439272 C 97.949092 189.125771 145.177603 231.223491 147.154219 233.031885 C 147.658887 233.410386 148.163555 233.494497 148.5 233.494497 C 148.836445 233.494497 149.341113 233.410386 149.845781 233.031885 C 151.822397 231.223491 199.050908 189.125771 199.050908 146.439272 C 199.050908 118.514312 176.382905 95.804253 148.5 95.804253 Z M 148.5 164.439097 C 138.70103 164.439097 130.710454 156.364409 130.710454 146.439272 C 130.710454 136.514136 138.70103 128.439448 148.5 128.439448 C 158.29897 128.439448 166.289546 136.514136 166.289546 146.439272 C 166.289546 156.364409 158.29897 164.439097 148.5 164.439097 Z M 148.5 164.439097 " transform="matrix(0.0928829,0,0,0.0928829,2.206897,2.206897)"/>
<path style="fill-rule:nonzero;fill:rgb(5.882353%,51.372549%,100%);fill-opacity:1;stroke-width:1;stroke-linecap:butt;stroke-linejoin:miter;stroke:rgb(5.882353%,51.372549%,100%);stroke-opacity:1;stroke-miterlimit:4;" d="M 293.087373 122.719878 L 154.640127 15.81438 C 151.02334 12.99665 145.97666 12.99665 142.359873 15.81438 L 3.912627 122.719878 C 0.506118 125.369385 -0.839663 129.869341 0.548174 133.906685 C 1.936011 137.986084 5.721021 140.719702 10.052754 140.719702 L 49.458911 140.719702 L 49.458911 273.2371 C 49.458911 278.788447 53.958867 283.288403 59.510215 283.288403 L 237.531841 283.288403 C 243.041133 283.288403 247.541089 278.788447 247.541089 273.2371 L 247.541089 140.719702 L 286.947246 140.719702 C 291.278979 140.719702 295.063989 137.986084 296.451826 133.906685 C 297.839663 129.869341 296.493882 125.369385 293.087373 122.719878 Z M 159.098027 243.545801 C 156.196187 246.153252 152.411177 247.583145 148.5 247.583145 C 144.588823 247.583145 140.803813 246.153252 137.901973 243.545801 C 135.673022 241.61124 83.9025 195.392065 83.9025 146.439272 C 83.9025 110.776069 112.878853 81.757661 148.5 81.757661 C 184.121147 81.757661 213.0975 110.776069 213.0975 146.439272 C 213.0975 195.392065 161.326978 241.61124 159.098027 243.545801 Z M 159.098027 243.545801 " transform="matrix(0.0928829,0,0,0.0928829,2.206897,2.206897)"/>
</g>
</svg>
